# xmcd CD database file
#
# Track frame offsets:
#	187
#	18030
#	33670
#	49395
#	61242
#	80395
#	96927
#	111675
#	127747
#	148660
#
# Disc length: 2227 seconds
#
# Revision: 5
# Processed by: cddbd v1.5.1PL2 Copyright (c) Steve Scherf et al.
# Submitted via: CDex 1.51
#
DISCID=8608b10a
DTITLE=VARIOUS ARTIST - Flashdance
DYEAR=1983
DGENRE=Soundtrack
TTITLE0=Flashdance... What A Feeling - Irene Cara
TTITLE1=He's A Dream - Shandi
TTITLE2=Love Theme From Flashdance - Helen St. John
TTITLE3=Manhunt - Karen Kamon
TTITLE4=Lady, Lady, Lady - Joe Bean Esposito
TTITLE5=Imagination - Laura Branigan
TTITLE6=Romeo - Donna Summer
TTITLE7=Seduce Me Tonight - Cycle V
TTITLE8=I'll Be Here Where The Heart Is - Kim Carnes
TTITLE9=Maniac - Michael Sembello
EXTD=YEAR: 1983
EXTT0=
EXTT1=
EXTT2=
EXTT3=
EXTT4=
EXTT5=
EXTT6=
EXTT7=
EXTT8=
EXTT9=
PLAYORDER=
